<?xml version="1.0" encoding="UTF-8"?>
<svg version="1.1" xmlns="http://www.w3.org/2000/svg" width="1024" height="1024">
<path d="M0 0 C1.05005063 -0.00205263 2.10010126 -0.00410527 3.18197161 -0.0062201 C6.69397979 -0.01186611 10.20594846 -0.01043582 13.71796036 -0.00901413 C16.26416355 -0.01159915 18.81036634 -0.01461269 21.35656857 -0.01801753 C27.61638091 -0.02523058 33.87618096 -0.02778938 40.13599696 -0.02834659 C47.63735733 -0.02926259 55.13870986 -0.03593717 62.64006684 -0.04269341 C80.76909822 -0.05873239 98.89812874 -0.06465453 117.02716594 -0.06944216 C125.60943241 -0.07178045 134.19169821 -0.07538339 142.77396416 -0.07913754 C172.17197609 -0.09197187 201.56998765 -0.10269061 230.96800232 -0.10614014 C232.81251322 -0.10636177 234.65702412 -0.10658355 236.50153501 -0.10680549 C238.35041552 -0.10702613 240.19929602 -0.10724661 242.04817653 -0.10746694 C245.75713523 -0.10790948 249.46609394 -0.1083566 253.17505264 -0.10880661 C254.55445574 -0.1089707 254.55445574 -0.1089707 255.96172557 -0.1091381 C285.76375119 -0.11276679 315.56575245 -0.12868035 345.36776875 -0.15199697 C376.90157363 -0.17662325 408.43536461 -0.19031429 439.96917939 -0.19150805 C443.43453487 -0.1916795 446.89989034 -0.19189492 450.36524582 -0.19214249 C451.64507858 -0.19222614 451.64507858 -0.19222614 452.95076654 -0.19231148 C466.64976395 -0.19345956 480.34873627 -0.20446089 494.04772523 -0.21902954 C507.83216719 -0.23343493 521.61657718 -0.2366088 535.40102461 -0.22858956 C543.57710126 -0.22415214 551.75307426 -0.22791776 559.92913717 -0.24382807 C566.05411085 -0.2548072 572.17897925 -0.24987793 578.30395105 -0.2390562 C580.76701656 -0.23710806 583.23009265 -0.24013634 585.69314334 -0.24890056 C632.34310536 -0.40426426 672.11983461 12.24560853 706.14038467 45.07674026 C736.92862193 75.70759356 750.12727082 116.00040214 750.29245663 158.75932026 C750.30292167 163.47110706 750.30071391 168.18283218 750.29753494 172.89462662 C750.2994048 175.5233668 750.30166664 178.15210404 750.30440027 180.7808432 C750.30953143 186.48162892 750.31097545 192.18240616 750.30994415 197.88319397 C750.30841424 206.36106344 750.31259198 214.83892357 750.31781878 223.31679121 C750.32747354 239.34274173 750.33030232 255.36868904 750.33087584 271.39464212 C750.33133597 283.77446882 750.33339736 296.15429427 750.33657646 308.53412056 C750.33747405 312.10195205 750.33836387 315.66978355 750.33925134 319.23761505 C750.33947239 320.1246743 750.33969344 321.01173355 750.33992118 321.92567339 C750.34607266 346.86638973 750.35002202 371.80710563 750.3495779 396.74782276 C750.34956233 397.6875338 750.34954675 398.62724483 750.3495307 399.59543196 C750.34944759 404.35791161 750.34934855 409.12039127 750.34924599 413.88287092 C750.34921607 415.30155233 750.34921607 415.30155233 750.34918555 416.74889397 C750.34914511 418.66150611 750.34910331 420.57411826 750.34906016 422.48673041 C750.34844757 452.23556996 750.35595197 481.98439811 750.36963272 511.73323441 C750.38500913 545.18280041 750.393598 578.63235891 750.3926695 612.08192867 C750.39259487 615.65196065 750.39254616 619.22199263 750.39251518 622.79202461 C750.3924977 624.11049929 750.3924977 624.11049929 750.39247987 625.45560982 C750.39244916 639.57114324 750.39882185 653.68666673 750.40744745 667.8021972 C750.41594395 682.00060604 750.41689828 696.19900042 750.41033813 710.3974104 C750.40665579 718.82031307 750.40843527 727.24317166 750.41828047 735.66606962 C750.42431374 741.30684783 750.42294814 746.94759437 750.41580997 752.58837117 C750.41195647 755.79268388 750.41220158 758.99689594 750.41926732 762.20120556 C750.4955256 799.26134647 750.4955256 799.26134647 746.03882217 816.69392776 C745.82564346 817.54777054 745.61246475 818.40161331 745.39282608 819.28133011 C735.24524468 857.94723686 709.60709478 891.31369752 675.31250381 911.75813675 C653.62532226 924.17973794 629.0133185 932.49441569 603.86011219 932.38869667 C602.24566947 932.39395578 602.24566947 932.39395578 600.59861174 932.39932114 C597.00933928 932.40858951 593.4202307 932.40372357 589.83095169 932.3988533 C587.22456161 932.40259186 584.61817264 932.40719421 582.01178545 932.41258395 C576.35362969 932.42285754 570.69550814 932.42573235 565.03734398 932.42367172 C556.62283082 932.42061481 548.20835535 932.42896105 539.79384954 932.43942097 C523.88769419 932.45874174 507.98155176 932.46438851 492.07538605 932.46553509 C479.78751977 932.46645505 467.49965854 932.47057628 455.2117939 932.47693634 C451.67152149 932.47873151 448.13124907 932.48051114 444.59097666 932.4822861 C443.2706876 932.48294924 443.2706876 932.48294924 441.92372603 932.48362578 C417.17163353 932.49593095 392.41954278 932.50382725 367.66744709 932.50293922 C366.73461833 932.50290807 365.80178956 932.50287691 364.84069326 932.50284481 C360.11301469 932.5026786 355.38533613 932.50248052 350.65765757 932.50227539 C349.71876998 932.5022355 348.7798824 932.50219561 347.81254367 932.50215451 C345.91388364 932.50207364 344.01522361 932.50199004 342.11656358 932.50190373 C312.58957213 932.50067876 283.06262664 932.51568275 253.53564835 932.54304886 C220.3402596 932.57380244 187.14490105 932.59097934 153.94949716 932.58912241 C150.40639555 932.58897316 146.86329395 932.58887574 143.32019234 932.58881378 C142.44783197 932.58879047 141.5754716 932.58876716 140.67667607 932.58874315 C126.66702069 932.58868173 112.65740536 932.60142767 98.64776187 932.61867831 C84.55439498 932.63567246 70.46108638 932.63757915 56.36771489 932.62445967 C48.00698315 932.61709533 39.64642907 932.62065267 31.28571633 932.64034435 C25.02513536 932.65383712 18.76474145 932.6461652 12.50416904 932.6305979 C9.98465413 932.6275378 7.46511971 932.63112266 4.94562782 932.64231806 C-30.76809155 932.79040329 -63.09099242 923.80024883 -91.83617783 902.13142776 C-92.80813095 901.40310745 -93.78008408 900.67478714 -94.78149033 899.92439651 C-126.55420688 874.96011922 -146.57170396 839.11265008 -151.83617783 799.13142776 C-152.08945561 795.18714446 -152.10919758 791.2610337 -152.09344673 787.30955124 C-152.09870584 785.61108463 -152.09870584 785.61108463 -152.1040712 783.87830555 C-152.11334688 780.09849417 -152.10847171 776.31883817 -152.10360336 772.53902054 C-152.10623944 769.7957966 -152.11186437 767.05258054 -152.11733401 764.30936098 C-152.12761112 758.35226673 -152.13048179 752.39520496 -152.12842178 746.43810272 C-152.12536581 737.57912679 -152.13370901 728.72018667 -152.14417103 719.86121771 C-152.16349481 703.11557523 -152.16913867 686.369945 -152.17028515 669.62429267 C-152.17120496 656.68901124 -152.17532541 643.75373461 -152.1816864 630.81845474 C-152.18348155 627.09224463 -152.18526118 623.36603451 -152.18703616 619.63982439 C-152.1876993 618.25021413 -152.1876993 618.25021413 -152.18837584 616.83253093 C-152.2006814 590.7801022 -152.20857727 564.72767514 -152.20768929 538.67524338 C-152.20765813 537.69335501 -152.20762697 536.71146663 -152.20759487 535.69982407 C-152.20742866 530.72345142 -152.20723058 525.74707877 -152.20702545 520.77070612 C-152.20698556 519.78242032 -152.20694567 518.79413453 -152.20690457 517.77590068 C-152.2068237 515.77734576 -152.2067401 513.77879084 -152.20665379 511.78023592 C-152.20542867 480.69578376 -152.22043551 449.61137525 -152.24779892 418.52693558 C-152.27854555 383.58498621 -152.29572983 348.64306553 -152.29387248 313.70110178 C-152.29372322 309.97237682 -152.2936258 306.24365187 -152.29356384 302.51492691 C-152.29354053 301.59685515 -152.29351723 300.6787834 -152.29349321 299.73289129 C-152.29343176 284.98289212 -152.30618299 270.23293096 -152.32342837 255.48294308 C-152.34041382 240.64801704 -152.34233596 225.81314639 -152.32920973 210.97821599 C-152.32183978 202.1751421 -152.32541977 193.37223689 -152.34509441 184.569181 C-152.35714751 178.67619622 -152.35444457 172.78333281 -152.34015341 166.89035347 C-152.33243481 163.54099868 -152.33296016 160.19223169 -152.34706812 156.84285945 C-152.52136256 112.50552407 -137.55160945 74.38743362 -106.32543564 42.5889473 C-102.42436301 38.77101228 -98.18217078 35.42232416 -93.83617783 32.13142776 C-92.96477158 31.45595901 -92.09336533 30.78049026 -91.19555283 30.08455276 C-64.80405128 10.1751744 -32.95623711 -0.06071132 0 0 Z " fill="#F5921E" transform="translate(212.83617782592773,60.86857223510742)"/>
<path d="M0 0 C1.48628099 -0.001871 2.97256148 -0.00417284 4.4588412 -0.00686532 C8.5213317 -0.01295416 12.58380153 -0.01285318 16.64629555 -0.01167095 C21.03638142 -0.0114662 25.42646077 -0.0169928 29.81654358 -0.02172852 C38.40986428 -0.03001984 47.00317813 -0.03278268 55.5965025 -0.03334089 C62.58554443 -0.03381682 69.57458411 -0.03587537 76.56362534 -0.03904152 C96.40034214 -0.04784429 116.23705355 -0.05246154 136.07377233 -0.05171105 C137.14222012 -0.05167109 138.21066792 -0.05163113 139.31149292 -0.05158997 C140.38125287 -0.05154909 141.45101282 -0.0515082 142.55318974 -0.05146609 C159.88174498 -0.05105982 177.21027848 -0.06062542 194.53882743 -0.07472833 C212.35273831 -0.08911127 230.16663859 -0.09599745 247.98055542 -0.09513456 C257.97318241 -0.09480323 267.96578661 -0.09752209 277.95840836 -0.10831261 C286.46780547 -0.11744291 294.97716945 -0.11957217 303.48656936 -0.11280318 C307.82271477 -0.1095506 312.15879671 -0.10943537 316.49493599 -0.11815643 C320.47505573 -0.12607864 324.45506228 -0.12453236 328.43517946 -0.1158723 C329.86449679 -0.11434979 331.29382282 -0.11610553 332.72312988 -0.12173238 C374.37809496 -0.27467617 409.96655382 15.70587252 439.62496948 44.56535339 C442.10962027 47.03922145 444.44171784 49.60542406 446.67672729 52.30558777 C447.75607583 53.60080601 448.88134655 54.85837421 450.03610229 56.08683777 C475.00950186 82.73829185 485.55514464 118.74345893 485.46759033 154.60797119 C485.47133886 156.0944434 485.47594509 157.58091364 485.48132098 159.06738085 C485.49341805 163.10281846 485.49330645 167.13817237 485.49093223 171.17362392 C485.49052065 175.5453426 485.5015954 179.91703564 485.51104736 184.28874207 C485.52758511 192.83546565 485.53315362 201.38216163 485.53427212 209.92889989 C485.53522604 216.88389292 485.53935339 223.83887694 485.54567337 230.79386711 C485.56326605 250.55967882 485.57251533 270.32546892 485.57101242 290.09128851 C485.57089255 291.68611298 485.57089255 291.68611298 485.57077026 293.31315613 C485.5706885 294.3776869 485.57060674 295.44221766 485.5705225 296.53900694 C485.56971016 313.77841518 485.58883995 331.01773594 485.617047 348.25711889 C485.64585373 366.00458744 485.65958302 383.75201344 485.65785944 401.49950594 C485.65719823 411.44478744 485.66257206 421.38997721 485.68421555 431.3352375 C485.70253022 439.80442795 485.70669101 448.27348508 485.6931967 456.74268688 C485.68671851 461.053483 485.68636037 465.36402415 485.7039032 469.67479515 C485.84563991 506.9046758 480.60395735 541.30077054 458.20016479 572.13371277 C457.62137573 572.93679871 457.04258667 573.73988464 456.44625854 574.56730652 C435.23843054 602.46270016 404.6963036 621.11242728 370.20016479 627.13371277 C369.47137672 627.29457546 368.74258865 627.45543815 367.99171609 627.62117547 C359.9616406 629.30008242 352.11385762 629.41756801 343.93840027 629.39440918 C342.41413171 629.39743466 340.88986468 629.40132613 339.36560029 629.40600175 C335.20273417 629.41623961 331.03995459 629.41411071 326.87708151 629.40982115 C322.37725827 629.40734619 317.87745545 629.41637771 313.37763977 629.42385864 C304.57122052 629.43658705 295.76483178 629.43840159 286.95840488 629.43605838 C279.79632945 629.43427271 272.63426327 629.4360302 265.47218895 629.44028282 C263.94102839 629.44117561 263.94102839 629.44117561 262.3789353 629.44208642 C260.30495388 629.44329823 258.23097245 629.44451236 256.15699103 629.4457288 C236.72020088 629.45659753 217.28342809 629.45444521 197.84663697 629.44834395 C180.08810872 629.44317738 162.32963537 629.45442459 144.57111797 629.47344217 C126.31420694 629.49284277 108.05732184 629.50107255 89.80040044 629.49731892 C79.55962167 629.49541 69.3188896 629.49786417 59.07811928 629.51203346 C50.35829438 629.52397669 41.63854491 629.52531937 32.91871891 629.5132433 C28.47520158 629.50737476 24.03182202 629.50619868 19.58831406 629.5182457 C15.5101127 629.52917318 11.43216298 629.52592056 7.35397305 629.51198401 C5.88902024 629.50935578 4.42404726 629.51164371 2.95911435 629.51971988 C-30.10698729 629.6891677 -61.74880537 617.49654127 -86.79983521 596.13371277 C-87.90388887 595.23774017 -89.00804016 594.34188784 -90.11233521 593.44621277 C-92.81474923 591.12087977 -95.28487744 588.65978228 -97.79983521 586.13371277 C-98.62741333 585.34093933 -99.45499146 584.54816589 -100.30764771 583.73136902 C-118.27476782 566.32739745 -131.61168267 545.30856422 -139.04983521 521.38371277 C-139.40114502 520.27926819 -139.40114502 520.27926819 -139.759552 519.1525116 C-145.51215451 499.58871281 -145.23862288 479.71081993 -145.19200921 459.53254163 C-145.18515218 455.13230181 -145.19573256 450.73209617 -145.20394897 446.3318634 C-145.21721864 437.73640448 -145.21443886 429.14102459 -145.20571105 420.54556269 C-145.19890764 413.55295096 -145.19802921 406.56036122 -145.2012825 399.56774712 C-145.2017422 398.56863975 -145.2022019 397.56953239 -145.20267553 396.54014904 C-145.20363481 394.50982181 -145.20460745 392.47949458 -145.2055933 390.44916736 C-145.21412749 371.45524282 -145.20434434 352.46136186 -145.1881922 333.46744447 C-145.17479289 317.2079854 -145.17711778 300.94859061 -145.19094849 284.68913269 C-145.20704281 265.75998072 -145.21330154 246.83086687 -145.2041117 227.90170902 C-145.20315615 225.87897075 -145.20221304 223.85623247 -145.2012825 221.83349419 C-145.20081967 220.83854117 -145.20035685 219.84358815 -145.19988 218.81848504 C-145.19730149 211.84354528 -145.20163643 204.86862991 -145.20872116 197.89369392 C-145.21717941 189.38021699 -145.21476597 180.86682293 -145.19887893 172.35335536 C-145.19105363 168.01865393 -145.18780511 163.6840901 -145.19782639 159.34939003 C-145.28503728 118.23213239 -145.28503728 118.23213239 -139.11233521 98.94621277 C-138.72779175 97.71862244 -138.72779175 97.71862244 -138.33547974 96.4662323 C-131.58806175 75.71822304 -120.11546304 57.60816934 -104.79983521 42.13371277 C-104.00190552 41.27519714 -103.20397583 40.41668152 -102.38186646 39.53215027 C-84.0568853 20.22066931 -59.42103616 8.89848298 -33.79983521 3.13371277 C-32.92327271 2.91843933 -32.04671021 2.70316589 -31.14358521 2.48136902 C-20.86423518 0.00201875 -10.52403326 -0.01263168 0 0 Z " fill="#EAEBEB" transform="translate(345.7998352050781,201.8662872314453)"/>
<path d="M0 0 C0.66 0 1.32 0 2 0 C2.03425469 57.57310204 2.06609358 115.1462051 2.08468628 172.71931458 C2.08496239 173.57212606 2.08523851 174.42493755 2.08552299 175.30359182 C2.09150953 193.83981647 2.09704979 212.37604123 2.10213066 230.91226615 C2.10462522 240.00311561 2.10721834 249.09396504 2.10986328 258.18481445 C2.1101248 259.08943803 2.11038632 259.9940616 2.11065576 260.92609801 C2.11917049 290.2199151 2.13418715 319.51372445 2.15259444 348.80753685 C2.17148411 378.9238901 2.18377656 409.04023907 2.18782998 439.15659815 C2.18840625 443.41543202 2.18905752 447.67426589 2.18975449 451.93309975 C2.18988933 452.77125621 2.19002418 453.60941266 2.19016311 454.4729678 C2.19252173 467.93652973 2.20178482 481.40007838 2.21366407 494.86363491 C2.22547332 508.41627077 2.22992728 521.96889353 2.22700275 535.52153435 C2.22548766 543.562221 2.22948254 551.60285952 2.24159509 559.64353743 C2.25004363 565.66636315 2.24788725 571.68913807 2.24179779 577.71196858 C2.24095806 580.13493851 2.24344852 582.5579126 2.24976636 584.98087444 C2.29350733 602.80460993 2.32012701 621.17520035 -2.125 638.5625 C-2.33817871 639.41634277 -2.55135742 640.27018555 -2.77099609 641.14990234 C-12.9185775 679.81580909 -38.5567274 713.18226975 -72.85131836 733.62670898 C-94.53849991 746.04831017 -119.15050367 754.36298793 -144.30370998 754.25726891 C-145.91815271 754.26252802 -145.91815271 754.26252802 -147.56521043 754.26789337 C-151.15448289 754.27716175 -154.74359147 754.2722958 -158.33287048 754.26742554 C-160.93926057 754.2711641 -163.54564953 754.27576644 -166.15203673 754.28115618 C-171.81019248 754.29142977 -177.46831404 754.29430458 -183.1264782 754.29224396 C-191.54099135 754.28918704 -199.95546682 754.29753329 -208.36997264 754.30799321 C-224.27612798 754.32731398 -240.18227042 754.33296074 -256.08843612 754.33410732 C-268.3763024 754.33502728 -280.66416363 754.33914852 -292.95202827 754.34550858 C-296.49230068 754.34730374 -300.0325731 754.34908337 -303.57284552 754.35085833 C-304.89313458 754.35152148 -304.89313458 754.35152148 -306.24009614 754.35219802 C-330.99218864 754.36450319 -355.74427939 754.37239949 -380.49637508 754.37151146 C-381.42920385 754.3714803 -382.36203261 754.37144914 -383.32312892 754.37141704 C-388.05080748 754.37125083 -392.77848604 754.37105275 -397.5061646 754.37084763 C-398.44505219 754.37080774 -399.38393978 754.37076785 -400.3512785 754.37072675 C-402.24993853 754.37064587 -404.14859857 754.37056228 -406.0472586 754.37047596 C-435.57425005 754.369251 -465.10119553 754.38425498 -494.62817383 754.41162109 C-527.82356258 754.44237468 -561.01892112 754.45955157 -594.21432501 754.45769465 C-597.75742662 754.4575454 -601.30052823 754.45744798 -604.84362984 754.45738602 C-605.7159902 754.45736271 -606.58835057 754.4573394 -607.4871461 754.45731538 C-621.49680149 754.45725396 -635.50641681 754.4699999 -649.51606031 754.48725055 C-663.6094272 754.50424469 -677.70273579 754.50615139 -691.79610728 754.4930319 C-700.15683902 754.48566757 -708.5173931 754.48922491 -716.87810584 754.50891658 C-723.13868681 754.52240936 -729.39908072 754.51473743 -735.65965313 754.49917014 C-738.17916805 754.49611003 -740.69870246 754.49969489 -743.21819436 754.51089029 C-778.93191372 754.65897553 -811.25481459 745.66882107 -840 724 C-840.97195313 723.27167969 -841.94390625 722.54335938 -842.9453125 721.79296875 C-871.46293636 699.38626429 -890.40870501 668.35720416 -898 633 C-898.18981445 632.14712402 -898.37962891 631.29424805 -898.57519531 630.41552734 C-900.4162279 621.04639236 -900.22479945 611.75166077 -900.125 602.25 C-900.11494397 600.57031787 -900.10582278 598.89062988 -900.09765625 597.2109375 C-900.07586468 593.14047718 -900.04148163 589.07030532 -900 585 C-899.34 585 -898.68 585 -898 585 C-897.814375 586.96453125 -897.814375 586.96453125 -897.625 588.96875 C-894.25550692 620.22999706 -881.54018548 648.31079654 -861 672 C-860.28070312 672.85335937 -859.56140625 673.70671875 -858.8203125 674.5859375 C-839.18501909 697.29579642 -810.89039499 712.00931956 -782 719 C-781.04763102 719.25221968 -781.04763102 719.25221968 -780.07602227 719.50953472 C-771.78697894 721.46904944 -763.49994799 721.2724988 -755.04244995 721.24050903 C-753.3220266 721.2413821 -751.60160351 721.24313493 -749.88118184 721.24568737 C-745.17208785 721.25014512 -740.46308538 721.24217888 -735.75400305 721.23213124 C-730.66892349 721.22347634 -725.58384889 721.22641835 -720.49876404 721.22793579 C-711.69462745 721.22898335 -702.89052056 721.22272022 -694.08639145 721.21146011 C-681.35717744 721.19519061 -668.62797777 721.18999562 -655.89875449 721.18748413 C-635.24532038 721.18310931 -614.59190209 721.16980596 -593.93847656 721.15087891 C-573.87825601 721.13251461 -553.81803976 721.11836079 -533.7578125 721.10986328 C-532.52083657 721.10933783 -531.28386064 721.10881239 -530.00940059 721.10827102 C-523.80371739 721.1056609 -517.59803416 721.10313349 -511.39235091 721.10064721 C-459.92822301 721.07992133 -408.46411228 721.04470158 -357 721 C-361.29622273 718.98477048 -365.59259721 716.96986493 -369.88909912 714.95523071 C-371.34380981 714.27306389 -372.79848245 713.59081592 -374.25311279 712.90847778 C-387.33823221 706.77062414 -400.44249923 700.67486733 -413.55566406 694.59716797 C-417.05610788 692.9739823 -420.5555551 691.34866688 -424.0546875 689.72265625 C-444.48981717 680.22676243 -464.92796754 670.73890641 -485.45117188 661.43457031 C-491.61688932 658.63670073 -497.75752908 655.79116822 -503.88671875 652.9140625 C-508.23857236 650.87986273 -512.61159774 648.892434 -516.98242188 646.89941406 C-525.06404255 643.21319037 -533.10730017 639.50868956 -541.015625 635.4609375 C-545.78057292 633.12835828 -550.64677649 631.02711424 -555.50268555 628.89208984 C-560.23687082 626.8039357 -564.88780491 624.6126403 -569.49609375 622.2578125 C-577.96993985 618.00105986 -586.65411286 614.1517924 -595.29370117 610.24609375 C-602.96827299 606.77560485 -610.60341622 603.2826248 -618.10546875 599.44921875 C-624.00412552 596.49591016 -630.01142634 593.76521571 -636 591 C-632.25906472 589.75302157 -629.87996246 590.40517323 -626 591 C-623.8075988 591.08776017 -621.61305176 591.13068536 -619.41889763 591.13422108 C-618.1290546 591.13867892 -616.83921158 591.14313676 -615.5102824 591.14772969 C-614.09115465 591.14764041 -612.6720269 591.1474506 -611.25289917 591.14717102 C-609.73564724 591.15047333 -608.21839619 591.15419967 -606.70114625 591.1583125 C-602.53892093 591.16829944 -598.37671003 591.17204397 -594.21447444 591.17470181 C-589.72198678 591.17861486 -585.22951044 591.18819267 -580.73703003 591.19691467 C-569.88917692 591.21665376 -559.04132292 591.22674333 -548.19345635 591.23564246 C-543.0777122 591.24003069 -537.96196908 591.24539621 -532.84622574 591.25063133 C-515.82652184 591.26764319 -498.80681856 591.28213465 -481.78710747 591.28938007 C-477.37288283 591.2912898 -472.95865821 591.29321015 -468.54443359 591.29516602 C-467.44737316 591.29564976 -466.35031272 591.2961335 -465.22000803 591.2966319 C-447.47105938 591.30492204 -429.72217835 591.33024197 -411.9732592 591.36274669 C-393.72662461 591.39588875 -375.48002429 591.41383539 -357.23335946 591.41702431 C-346.99848558 591.41918311 -336.76371023 591.42783866 -326.52886581 591.45348549 C-317.80724904 591.47529055 -309.08575473 591.48319512 -300.36411379 591.47351871 C-295.92198328 591.46900186 -291.48010488 591.47070579 -287.03800964 591.49028015 C-241.7343221 591.67864843 -203.44170338 581.95099216 -170.0625 549.5 C-149.70634856 529.13272498 -138.28047434 502.9722188 -133 475 C-132.83087672 474.16171134 -132.66175343 473.32342268 -132.4875052 472.45973134 C-130.9515909 464.26216799 -130.71763924 456.27901997 -130.74603271 447.95965576 C-130.74372368 446.4716477 -130.7405442 444.98364079 -130.73657823 443.49563622 C-130.72828198 439.43763859 -130.73233184 435.37973584 -130.73855066 431.321738 C-130.74309562 426.9330475 -130.73608119 422.54437275 -130.73059082 418.15568542 C-130.72171603 409.56931299 -130.72361055 400.98297561 -130.7294161 392.39660183 C-130.73394131 385.41332663 -130.73454178 378.43006122 -130.73236847 371.44678497 C-130.732062 370.45112501 -130.73175554 369.45546505 -130.73143978 368.42963357 C-130.7308003 366.40662668 -130.73015187 364.38361979 -130.7294946 362.3606129 C-130.72379661 343.40690889 -130.73034026 324.45322426 -130.74109533 305.49952343 C-130.75002485 289.26090305 -130.74848271 273.02231127 -130.73925781 256.78369141 C-130.72853629 237.90187905 -130.72435167 219.02008368 -130.73048234 200.13826871 C-130.7311194 198.12167184 -130.73174814 196.10507496 -130.73236847 194.08847809 C-130.73267702 193.09642553 -130.73298557 192.10437297 -130.73330347 191.08225821 C-130.73502518 184.11504328 -130.73212652 177.14783917 -130.72740936 170.18062592 C-130.72177935 161.67859326 -130.72336113 153.17659751 -130.73397085 144.67456904 C-130.73919999 140.34246283 -130.74133185 136.01041796 -130.73467255 131.6783123 C-130.72865297 127.70196918 -130.73208573 123.72574346 -130.74262765 119.74941078 C-130.74483657 118.3215008 -130.74378291 116.89358061 -130.73887607 115.46567735 C-130.69549668 101.77718263 -131.89096476 88.34025968 -135.625 75.125 C-136.01413574 73.73547119 -136.01413574 73.73547119 -136.41113281 72.31787109 C-144.7548632 43.71289647 -161.90450396 23.21028269 -182 2 C-177.86642108 2 -176.52899114 3.68326428 -173.3125 6.25 C-172.14278719 7.17296609 -170.97217341 8.09479121 -169.80078125 9.015625 C-168.87386475 9.74749023 -168.87386475 9.74749023 -167.92822266 10.49414062 C-164.65786076 13.04815331 -161.3271635 15.52074076 -158 18 C-152.51395729 22.09997108 -147.06349245 26.24160606 -141.64355469 30.4284668 C-138.20016485 33.08544935 -134.73396467 35.70899379 -131.25 38.3125 C-126.47329739 41.8825225 -121.73163545 45.495506 -117 49.125 C-110.72073141 53.94102098 -104.40265202 58.70197703 -98.0625 63.4375 C-90.81519334 68.85347552 -83.64551355 74.35862767 -76.51904297 79.93237305 C-70.95618258 84.2762382 -65.33153432 88.53012922 -59.67553711 92.75170898 C-54.63197038 96.51793149 -49.63659792 100.34303201 -44.65234375 104.1875 C-40.06894795 107.72018251 -35.47356568 111.23709551 -30.875 114.75 C-30.08327393 115.35682617 -29.29154785 115.96365234 -28.47583008 116.58886719 C-19.40229793 123.51375695 -10.19391428 130.22553685 -1 137 C-0.67 91.79 -0.34 46.58 0 0 Z " fill="#D9811A" transform="translate(961,239)"/>
<path d="M0 0 C1.04586273 -0.00101212 1.04586273 -0.00101212 2.112854 -0.00204468 C12.7727601 0.01435895 22.82131545 0.55692937 33.1875 3.25 C33.91098633 3.43755859 34.63447266 3.62511719 35.37988281 3.81835938 C43.55758375 5.97903453 51.67750078 8.29481463 59.1875 12.25 C59.75259277 12.54358398 60.31768555 12.83716797 60.89990234 13.13964844 C85.87738993 26.23365741 109.79244165 46.39391684 120.3359375 73.28515625 C121.17817696 75.36363975 121.17817696 75.36363975 122.6328125 77.5546875 C129.9823817 90.29640295 133.33267882 107.8547153 133.35546875 122.34375 C133.35879715 123.09410522 133.36212555 123.84446045 133.36555481 124.61755371 C133.37058677 126.19408562 133.3729643 127.77062804 133.37280273 129.34716797 C133.37499391 131.74334357 133.39320188 134.13906154 133.41210938 136.53515625 C133.41504327 138.07551928 133.41702809 139.61588447 133.41796875 141.15625 C133.42515427 141.8637439 133.43233978 142.57123779 133.43974304 143.3001709 C133.41868864 147.93723987 132.60843001 151.84940204 131.1875 156.25 C130.91724917 157.68383079 130.66547953 159.12134366 130.4375 160.5625 C127.53025031 175.12077308 121.79448443 187.79335412 114.1237793 200.42919922 C113.09135731 202.43697059 112.49937752 204.00854015 112.1875 206.25 C113.07907099 207.95909652 113.07907099 207.95909652 114.60571289 209.45800781 C115.1612233 210.05832825 115.7167337 210.65864868 116.28907776 211.27716064 C116.90653366 211.91272888 117.52398956 212.54829712 118.16015625 213.203125 C118.79424911 213.86334656 119.42834198 214.52356812 120.08164978 215.20379639 C121.43412029 216.59917411 122.79394714 217.98745289 124.16040039 219.36914062 C126.22497142 221.47447722 128.23328437 223.6247297 130.24414062 225.78125 C137.03857561 233.1757589 137.03857561 233.1757589 145.99169922 236.95898438 C149.56667197 236.8874033 149.56667197 236.8874033 152.80639648 236.18261719 C162.68773127 236.37954465 170.77145358 247.39415708 177.3359375 254 C178.48130386 255.14334104 179.62711487 256.2862368 180.77334595 257.42871094 C183.15994974 259.81091834 185.54111014 262.19839934 187.91845703 264.58984375 C190.9578593 267.64639472 194.01061415 270.68919839 197.06754112 273.72821045 C199.43048695 276.08029547 201.78621641 278.43950382 204.13985062 280.80090332 C205.2627343 281.92577962 206.38782694 283.04845558 207.5152092 284.16882324 C209.08963558 285.73559078 210.65406156 287.31172506 212.21630859 288.890625 C213.10627533 289.78297852 213.99624207 290.67533203 214.91317749 291.59472656 C218.79887608 296.13128292 220.61708316 300.15570208 220.625 306.125 C220.65400391 307.57519531 220.65400391 307.57519531 220.68359375 309.0546875 C219.26635262 318.18305949 213.26632407 323.76050048 206.875 330 C206.04548828 330.83660156 205.21597656 331.67320312 204.36132812 332.53515625 C199.90680608 336.94397286 195.81962468 340.48129705 190.1875 343.25 C189.5275 343.58 188.8675 343.91 188.1875 344.25 C186.05078125 344.453125 186.05078125 344.453125 183.5 344.5 C182.67113281 344.52578125 181.84226562 344.5515625 180.98828125 344.578125 C174.29186658 343.7936078 169.89788312 340.5508846 165.29980469 335.84814453 C164.75740143 335.30953796 164.21499817 334.7709314 163.65615845 334.21600342 C161.8806649 332.4478691 160.11990338 330.66583807 158.359375 328.8828125 C157.12176384 327.64281437 155.8834094 326.40355768 154.64434814 325.16500854 C152.05612329 322.57366374 149.47473045 319.97576529 146.8984375 317.37255859 C143.60113863 314.04124595 140.2907919 310.723286 136.97568893 307.40970039 C134.42030121 304.85376809 131.87016468 302.29265078 129.32175446 299.72976303 C128.10295038 298.5046101 126.88294491 297.28065108 125.66170502 296.05792618 C123.95525446 294.34712435 122.25555748 292.62988772 120.55761719 290.91064453 C120.05575897 290.40969269 119.55390076 289.90874084 119.03683472 289.39260864 C116.25473649 286.55949755 113.94947119 283.82168943 112.1875 280.25 C112.39331055 277.24194336 112.39331055 277.24194336 112.88671875 273.90234375 C113.03885306 266.75576436 110.75453163 263.45853255 106.01953125 258.50390625 C104.07135449 256.54490784 102.09226241 254.63339162 100.07202148 252.7487793 C97.98602632 250.79944176 95.95965571 248.80045037 93.93554688 246.78710938 C92.63331169 245.52283726 91.32807326 244.26164958 90.01953125 243.00390625 C89.10673149 242.11053307 89.10673149 242.11053307 88.17549133 241.19911194 C84.81043513 238.00288187 84.81043513 238.00288187 80.39428711 237.31323242 C78.00262324 238.32847905 76.04815666 239.4834541 73.9375 241 C62.02083333 249.25 62.02083333 249.25 57.1875 249.25 C57.1875 249.91 57.1875 250.57 57.1875 251.25 C48.44764702 254.56893151 39.76818447 257.55719623 30.625 259.5625 C29.90070801 259.72137695 29.17641602 259.88025391 28.43017578 260.04394531 C-5.61252044 267.17371598 -41.70065744 260.18364197 -70.8125 241.25 C-101.01111 221.08909333 -118.67372051 190.7192554 -127.26953125 156.0234375 C-130.43954958 139.83125752 -130.28132231 121.37904387 -126.8125 105.25 C-126.67827637 104.61980957 -126.54405273 103.98961914 -126.40576172 103.34033203 C-119.22000154 70.35586256 -100.52240667 41.26239635 -72.58984375 22.03125 C-50.14463687 7.8495883 -26.58194591 0.02298196 0 0 Z " fill="#F5921F" transform="translate(463.8125,337.75)"/>
<path d="M0 0 C0.66 0 1.32 0 2 0 C2.64955255 51.41957944 -5.49839459 94.97871893 -42.08422852 133.48242188 C-66.59234273 158.54793211 -102.97626505 177.37563729 -138.52503246 178.25299966 C-140.45122483 178.26444453 -142.37750063 178.26536477 -144.30370998 178.25726891 C-145.91815271 178.26252802 -145.91815271 178.26252802 -147.56521043 178.26789337 C-151.15448289 178.27716175 -154.74359147 178.2722958 -158.33287048 178.26742554 C-160.93926057 178.2711641 -163.54564953 178.27576644 -166.15203673 178.28115618 C-171.81019248 178.29142977 -177.46831404 178.29430458 -183.1264782 178.29224396 C-191.54099135 178.28918704 -199.95546682 178.29753329 -208.36997264 178.30799321 C-224.27612798 178.32731398 -240.18227042 178.33296074 -256.08843612 178.33410732 C-268.3763024 178.33502728 -280.66416363 178.33914852 -292.95202827 178.34550858 C-296.49230068 178.34730374 -300.0325731 178.34908337 -303.57284552 178.35085833 C-304.89313458 178.35152148 -304.89313458 178.35152148 -306.24009614 178.35219802 C-330.99218864 178.36450319 -355.74427939 178.37239949 -380.49637508 178.37151146 C-381.42920385 178.3714803 -382.36203261 178.37144914 -383.32312892 178.37141704 C-388.05080748 178.37125083 -392.77848604 178.37105275 -397.5061646 178.37084763 C-398.44505219 178.37080774 -399.38393978 178.37076785 -400.3512785 178.37072675 C-402.24993853 178.37064587 -404.14859857 178.37056228 -406.0472586 178.37047596 C-435.57425005 178.369251 -465.10119553 178.38425498 -494.62817383 178.41162109 C-527.82356258 178.44237468 -561.01892112 178.45955157 -594.21432501 178.45769465 C-597.75742662 178.4575454 -601.30052823 178.45744798 -604.84362984 178.45738602 C-605.7159902 178.45736271 -606.58835057 178.4573394 -607.4871461 178.45731538 C-621.49680149 178.45725396 -635.50641681 178.4699999 -649.51606031 178.48725055 C-663.6094272 178.50424469 -677.70273579 178.50615139 -691.79610728 178.4930319 C-700.15683902 178.48566757 -708.5173931 178.48922491 -716.87810584 178.50891658 C-723.13868681 178.52240936 -729.39908072 178.51473743 -735.65965313 178.49917014 C-738.17916805 178.49611003 -740.69870246 178.49969489 -743.21819436 178.51089029 C-778.93191372 178.65897553 -811.25481459 169.66882107 -840 148 C-840.97195313 147.27167969 -841.94390625 146.54335938 -842.9453125 145.79296875 C-871.46293636 123.38626429 -890.40870501 92.35720416 -898 57 C-898.18981445 56.14712402 -898.37962891 55.29424805 -898.57519531 54.41552734 C-900.4162279 45.04639236 -900.22479945 35.75166077 -900.125 26.25 C-900.11494397 24.57031787 -900.10582278 22.89062988 -900.09765625 21.2109375 C-900.07586468 17.14047718 -900.04148163 13.07030532 -900 9 C-899.34 9 -898.68 9 -898 9 C-897.87625 10.3096875 -897.7525 11.619375 -897.625 12.96875 C-894.25550692 44.22999706 -881.54018548 72.31079654 -861 96 C-859.92105469 97.28003906 -859.92105469 97.28003906 -858.8203125 98.5859375 C-835.42087925 125.64933894 -799.26466687 142.33406272 -764 146 C-755.36873501 146.52442469 -746.71369006 146.40617411 -738.07054138 146.38095093 C-735.47262074 146.38441276 -732.87470157 146.38918083 -730.27678543 146.39513266 C-724.65581522 146.40589937 -719.03493165 146.40568153 -713.4139576 146.39799118 C-705.05506782 146.38658633 -696.69625038 146.39247453 -688.33736101 146.4016161 C-673.4037872 146.41737147 -658.47025201 146.41606094 -643.53667457 146.40737936 C-630.46833966 146.39981983 -617.40001886 146.39786858 -604.33168221 146.4014473 C-603.02922067 146.40179103 -603.02922067 146.40179103 -601.70044678 146.40214171 C-598.17533167 146.40307579 -594.65021657 146.40403099 -591.12510148 146.405021 C-558.08707162 146.41418881 -525.0490663 146.40589204 -492.01104023 146.38973031 C-462.68451173 146.37549325 -433.35802231 146.37676949 -404.03149414 146.39111328 C-371.05071239 146.40719063 -338.0699523 146.41353978 -305.08916718 146.40427649 C-301.57094547 146.4033144 -298.05272375 146.40237587 -294.53450203 146.4014473 C-293.23517435 146.40109145 -293.23517435 146.40109145 -291.90959762 146.40072841 C-278.8515497 146.39732167 -265.79351747 146.40129619 -252.73547173 146.40888596 C-237.88279353 146.417476 -223.03015986 146.41529304 -208.17748719 146.39904372 C-199.87368258 146.39025779 -191.56997447 146.38962656 -183.26617243 146.40098225 C-177.05532487 146.40853628 -170.84459014 146.40029843 -164.63375641 146.38605852 C-162.12929944 146.38271976 -159.62482948 146.38438429 -157.12038093 146.39168589 C-139.94515184 146.43790093 -124.13345919 145.15098323 -107.5625 140.3125 C-106.68762939 140.05758789 -105.81275879 139.80267578 -104.91137695 139.54003906 C-85.15002651 133.55857253 -67.47428661 123.66857222 -52 110 C-51.01386719 109.14664063 -50.02773438 108.29328125 -49.01171875 107.4140625 C-27.92282892 88.88577467 -14.080216 64.68558422 -6 38 C-5.70222656 37.02160156 -5.40445313 36.04320312 -5.09765625 35.03515625 C-1.76630417 23.48315426 -0.62055741 11.95389529 0 0 Z " fill="#8F5402" transform="translate(961,815)"/>
<path d="M0 0 C0.7321875 0.62519531 1.464375 1.25039063 2.21875 1.89453125 C3.04632812 2.53003906 3.87390625 3.16554688 4.7265625 3.8203125 C15.47035428 12.76224579 22.61436054 25.89173542 27.21875 38.89453125 C27.88777344 40.47621094 27.88777344 40.47621094 28.5703125 42.08984375 C36.62556986 63.28552093 33.17479603 86.42712677 24.98828125 106.984375 C23.86661461 109.40763433 22.62629884 111.62659339 21.21875 113.89453125 C20.66832031 114.8175 20.11789062 115.74046875 19.55078125 116.69140625 C8.00385124 135.07126185 -6.94928064 146.45098977 -26.78125 154.89453125 C-27.54179687 155.23355469 -28.30234375 155.57257813 -29.0859375 155.921875 C-39.44668448 160.24243546 -50.87139483 160.2347014 -61.90625 160.20703125 C-63.84564453 160.23120117 -63.84564453 160.23120117 -65.82421875 160.25585938 C-73.37355766 160.25969932 -79.72294401 159.57783444 -86.78125 156.89453125 C-87.43464355 156.67015381 -88.08803711 156.44577637 -88.76123047 156.21459961 C-112.77512225 147.87828543 -131.67104968 129.64504085 -142.78125 106.89453125 C-151.20280383 86.79896142 -153.90905077 61.26949485 -145.56835938 40.80371094 C-145.30861328 40.17368164 -145.04886719 39.54365234 -144.78125 38.89453125 C-144.38776367 37.87987793 -144.38776367 37.87987793 -143.98632812 36.84472656 C-140.39023791 27.57854205 -136.15750647 19.60992444 -129.78125 11.89453125 C-129.14316406 11.105625 -128.50507813 10.31671875 -127.84765625 9.50390625 C-116.96920089 -3.36637896 -101.13988028 -13.63877377 -84.90625 -18.23046875 C-83.75382812 -18.56304687 -82.60140625 -18.895625 -81.4140625 -19.23828125 C-53.08448718 -26.00082504 -22.23023892 -18.6901495 0 0 Z " fill="#EFEFEF" transform="translate(524.78125,399.10546875)"/>
<path d="M0 0 C22.05661073 19.98880347 31.77074127 54.05834167 33.18818736 82.81832135 C33.2602732 86.70434649 33.27691331 90.58782258 33.26742554 94.47425842 C33.27117406 95.96073063 33.2757803 97.44720087 33.28115618 98.93366808 C33.29325325 102.96910569 33.29314166 107.0044596 33.29076743 111.03991115 C33.29035585 115.41162983 33.3014306 119.78332287 33.31088257 124.1550293 C33.32742032 132.70175288 33.33298883 141.24844886 33.33410732 149.79518712 C33.33506124 156.75018016 33.3391886 163.70516417 33.34550858 170.66015434 C33.36310126 190.42596606 33.37235054 210.19175615 33.37084763 229.95757575 C33.37072776 231.55240021 33.37072776 231.55240021 33.37060547 233.17944336 C33.37052371 234.24397413 33.37044195 235.3085049 33.37035771 236.40529417 C33.36954537 253.64470241 33.38867516 270.88402317 33.4168822 288.12340612 C33.44568893 305.87087467 33.45941822 323.61830067 33.45769465 341.36579317 C33.45703343 351.31107467 33.46240726 361.25626444 33.48405075 371.20152473 C33.50236543 379.67071518 33.50652622 388.13977232 33.4930319 396.60897411 C33.48655371 400.91977023 33.48619558 405.23031138 33.5037384 409.54108238 C33.64547512 446.77096303 28.40379256 481.16705777 6 512 C5.42121094 512.80308594 4.84242188 513.60617187 4.24609375 514.43359375 C-16.96173425 542.32898739 -47.5038612 560.97871451 -82 567 C-82.72878807 567.16086269 -83.45757615 567.32172538 -84.20844871 567.4874627 C-92.23852419 569.16636965 -100.08630717 569.28385524 -108.26176453 569.26069641 C-109.78603308 569.2637219 -111.31030012 569.26761336 -112.83456451 569.27228898 C-116.99743062 569.28252685 -121.16021021 569.28039794 -125.32308328 569.27610838 C-129.82290652 569.27363343 -134.32270935 569.28266494 -138.82252502 569.29014587 C-147.62894428 569.30287428 -156.43533301 569.30468882 -165.24175992 569.30234561 C-172.40383534 569.30055994 -179.56590153 569.30231743 -186.72797585 569.30657005 C-188.2591364 569.30746284 -188.2591364 569.30746284 -189.82122949 569.30837366 C-191.89521092 569.30958546 -193.96919234 569.31079959 -196.04317377 569.31201603 C-215.47996391 569.32288476 -234.9167367 569.32073245 -254.35352782 569.31463119 C-272.11205607 569.30946461 -289.87052943 569.32071183 -307.62904682 569.33972941 C-325.88595786 569.35913001 -344.14284295 569.36735978 -362.39976436 569.36360615 C-372.64054312 569.36169723 -382.88127519 569.3641514 -393.12204552 569.37832069 C-401.84187042 569.39026393 -410.56161989 569.39160661 -419.28144588 569.37953053 C-423.72496321 569.37366199 -428.16834277 569.37248591 -432.61185074 569.38453293 C-436.6900521 569.39546041 -440.76800181 569.39220779 -444.84619174 569.37827124 C-446.31114455 569.37564302 -447.77611754 569.37793094 -449.24105044 569.38600711 C-481.28894644 569.55023711 -515.23658115 557.98520383 -539 536 C-539.33 535.34 -539.66 534.68 -540 534 C-536.1017761 535.40533796 -532.94359853 537.27139614 -529.5 539.5625 C-511.14566438 551.16590848 -488.32140451 559.10667977 -466.46574974 559.13142776 C-465.1863569 559.13526891 -463.90696406 559.13911005 -462.58880174 559.1430676 C-461.1814647 559.14228749 -459.7741277 559.14140873 -458.36679077 559.14044189 C-456.86191343 559.14302775 -455.35703677 559.14604152 -453.85216105 559.1494453 C-449.72413834 559.15749339 -445.59613304 559.15930365 -441.46810341 559.16004276 C-437.01242738 559.16189726 -432.55676031 559.16944684 -428.10108948 559.17617798 C-418.35867037 559.18974871 -408.61625539 559.19578475 -398.87382841 559.20018864 C-392.78347531 559.20295456 -386.69312379 559.20719268 -380.60277176 559.21169281 C-363.72203611 559.22388642 -346.84130171 559.23418387 -329.96056175 559.2375679 C-328.88047707 559.23778747 -327.8003924 559.23800703 -326.68757788 559.23823325 C-325.60497331 559.23845153 -324.52236875 559.23866981 -323.40695798 559.2388947 C-321.21336261 559.23933816 -319.01976724 559.23978472 -316.82617188 559.24023438 C-315.73808328 559.2404558 -314.64999469 559.24067723 -313.52893372 559.24090537 C-295.9254951 559.24484748 -278.32209802 559.26228312 -260.71867542 559.2855939 C-242.62120217 559.30936415 -224.5237497 559.32177242 -206.42626059 559.32293582 C-196.2752434 559.32384967 -186.12428027 559.32952817 -175.97327805 559.34775543 C-167.32303991 559.36323353 -158.67287253 559.36823196 -150.02262317 559.36001733 C-145.6169899 559.35613722 -141.21149876 559.35690939 -136.80588341 559.37107468 C-105.15012584 559.60234376 -105.15012584 559.60234376 -74.3125 553.0625 C-73.14944336 552.70381836 -73.14944336 552.70381836 -71.96289062 552.33789062 C-62.45891925 549.34370513 -53.71647321 545.60487181 -45.1875 540.4375 C-44.31730225 539.9108374 -43.44710449 539.3841748 -42.55053711 538.84155273 C-35.04353736 534.19859956 -28.40732345 529.05044948 -22 523 C-21.45794922 522.49887695 -20.91589844 521.99775391 -20.35742188 521.48144531 C5.40185919 497.52800029 20.80582037 464.10591424 23 429 C23.13812302 424.0355946 23.14394051 419.07275575 23.14044189 414.10682678 C23.14303081 412.62253332 23.14604542 411.13824055 23.1494453 409.65394872 C23.15745683 405.60144216 23.15930158 401.54895336 23.16004276 397.49643981 C23.16190359 393.11515515 23.16945601 388.73387949 23.17617798 384.3526001 C23.18972023 374.7840332 23.19577961 365.21547053 23.20018864 355.64689565 C23.20295805 349.66373497 23.20719666 343.6805759 23.21169281 337.69741631 C23.22388016 321.10732277 23.23418049 304.51723052 23.2375679 287.92713261 C23.23789725 286.33654747 23.23789725 286.33654747 23.23823325 284.71382931 C23.23845153 283.65101137 23.23866981 282.58819343 23.2388947 281.49316889 C23.23933816 279.33976559 23.23978472 277.18636229 23.24023438 275.03295898 C23.24056652 273.43074117 23.24056652 273.43074117 23.24090537 271.79615533 C23.24485031 254.50268839 23.26229745 237.20926368 23.2855939 219.91581304 C23.30936011 202.12897136 23.32177215 184.34215082 23.32293582 166.55529302 C23.32384963 156.5815424 23.3295274 146.60784679 23.34775543 136.6341114 C23.36322774 128.13874998 23.36823512 119.6434606 23.36001733 111.14808775 C23.3561359 106.821535 23.35691624 102.49512698 23.37107468 98.16859245 C23.47238051 65.25113927 21.01663799 32.63486372 1.6953125 4.51953125 C0 2 0 2 0 0 Z " fill="#A7A8A9" transform="translate(798,262)"/>
<path d="M0 0 C6.13011366 5.04321408 11.74781541 10.56163728 17.35473633 16.16943359 C18.95311913 17.76559744 20.55938146 19.35355314 22.16601562 20.94140625 C23.18277887 21.95524079 24.19907272 22.96954635 25.21484375 23.984375 C26.13386475 24.89928711 27.05288574 25.81419922 27.99975586 26.75683594 C30 29 30 29 30 31 C30.66 31.33 31.32 31.66 32 32 C28.79083268 31.41954076 27.16563512 30.53623558 24.88378906 28.22436523 C24.30348938 27.64383896 23.7231897 27.06331268 23.12530518 26.4651947 C22.51161072 25.83601639 21.89791626 25.20683807 21.265625 24.55859375 C20.62759949 23.91632339 19.98957397 23.27405304 19.33221436 22.61231995 C17.29765882 20.56098274 15.27378621 18.49945727 13.25 16.4375 C11.87178509 15.04423766 10.49288675 13.65165102 9.11328125 12.25976562 C5.73420954 8.84763135 2.36468136 5.42632293 -1 2 C-0.67 1.34 -0.34 0.68 0 0 Z " fill="#E6DBCE" transform="translate(577,543)"/>
<path d="M0 0 C4 1.33333333 8 2.66666667 12 4 C12 4.99 12 5.98 12 7 C14.97 7.99 17.94 8.98 21 10 C16.49358626 11.12660343 16.49358626 11.12660343 13.14453125 9.453125 C12.44005859 9.1025 11.73558594 8.751875 11.00976562 8.390625 C10.28466797 8.01421875 9.55957031 7.6378125 8.8125 7.25 C8.07580078 6.8890625 7.33910156 6.528125 6.58007812 6.15625 C1.12943545 3.38830634 1.12943545 3.38830634 0 0 Z " fill="#F3F3F3" transform="translate(272,802)"/>
<path d="M0 0 C2.36094451 3.54141676 2.25726161 5.08101465 2.265625 9.27734375 C2.26820313 10.51291016 2.27078125 11.74847656 2.2734375 13.02148438 C2.26570312 14.31376953 2.25796875 15.60605469 2.25 16.9375 C2.25773438 18.22591797 2.26546875 19.51433594 2.2734375 20.84179688 C2.27085937 22.07865234 2.26828125 23.31550781 2.265625 24.58984375 C2.26336914 25.72284912 2.26111328 26.85585449 2.25878906 28.02319336 C2.00847768 30.90248268 1.49759292 32.56436663 0 35 C-0.38218767 33.34385343 -0.71395102 31.67542976 -1 30 C-0.67 29.67 -0.34 29.34 0 29 C0.08775605 26.85441173 0.10695219 24.70595579 0.09765625 22.55859375 C0.09443359 21.25341797 0.09121094 19.94824219 0.08789062 18.60351562 C0.07953401 17.2148431 0.07106905 15.82617123 0.0625 14.4375 C0.05748666 13.04492344 0.05292347 11.65234519 0.04882812 10.25976562 C0.03699434 6.8398013 0.0205088 3.41992156 0 0 Z " fill="#EDC89D" transform="translate(555,451)"/>
<path d="M0 0 C3.93657242 1.43213512 7.28931356 3.30332154 10.8125 5.5625 C12.27623047 6.49255859 12.27623047 6.49255859 13.76953125 7.44140625 C14.50558594 7.95574219 15.24164063 8.47007812 16 9 C16 9.33 16 9.66 16 10 C12.65515025 10.37298684 11.24442341 10.15547643 8.359375 8.3203125 C7.49828125 7.59585938 6.6371875 6.87140625 5.75 6.125 C4.87859375 5.40570312 4.0071875 4.68640625 3.109375 3.9453125 C1 2 1 2 0 0 Z " fill="#AEAEAE" transform="translate(258,796)"/>
<path d="M0 0 C0 3 0 3 -1.75 5.04296875 C-2.4925 5.75066406 -3.235 6.45835937 -4 7.1875 C-4.7425 7.90292969 -5.485 8.61835938 -6.25 9.35546875 C-6.8275 9.89816406 -7.405 10.44085938 -8 11 C-8.99 10.67 -9.98 10.34 -11 10 C-9.54474941 8.51780033 -8.085701 7.03932861 -6.625 5.5625 C-5.81289063 4.73878906 -5.00078125 3.91507812 -4.1640625 3.06640625 C-2 1 -2 1 0 0 Z " fill="#F69B31" transform="translate(378,371)"/>
<path d="M0 0 C3.93951596 1.84985967 6.78321875 4.07565341 10 7 C10 7.66 10 8.32 10 9 C6.78956118 7.61811547 4.95063635 6.07578097 2.75 3.375 C2.22921875 2.74335938 1.7084375 2.11171875 1.171875 1.4609375 C0.78515625 0.97882813 0.3984375 0.49671875 0 0 Z " fill="#AC6B1F" transform="translate(779,240)"/>
<path d="M0 0 C3.3 0.33 6.6 0.66 10 1 C9.67 1.99 9.34 2.98 9 4 C4.80884715 3.41789544 3.62457917 2.71843438 0 0 Z " fill="#A0641E" transform="translate(325,829)"/>
</svg>
